<?xml version="1.0" standalone="no"?>
<!DOCTYPE svg PUBLIC "-//W3C//DTD SVG 1.1//EN" "http://www.w3.org/Graphics/SVG/1.1/DTD/svg11.dtd" >
<svg xmlns="http://www.w3.org/2000/svg">
<metadata></metadata>
<defs>
<font id="zektonitalic" horiz-adv-x="1179" >
<font-face units-per-em="2048" ascent="1638" descent="-410" />
<missing-glyph horiz-adv-x="500" />
<glyph horiz-adv-x="0" />
<glyph unicode="&#xd;" horiz-adv-x="921" />
<glyph unicode="!" horiz-adv-x="405" d="M84 -41l53 250h221l-53 -250h-221zM197 369l278 1310h166l-279 -1310h-165z" />
<glyph unicode="&#x22;" horiz-adv-x="638" d="M367 1427l53 252h239l-53 -252l-117 -239h-112zM645 1188v244l51 247h240l-51 -247l-113 -244h-127z" />
<glyph unicode="#" horiz-adv-x="1087" d="M258 778l39 185h184l47 225h-184l39 184h184l66 307h166l-66 -307h203l65 307h166l-65 -307h184l-39 -184h-184l-47 -225h184l-39 -185h-184l-66 -307h-166l66 307h-203l-65 -307h-166l65 307h-184zM647 963h203l47 225h-203z" />
<glyph unicode="$" horiz-adv-x="1087" d="M242 266l39 185h497q147 0 183 163q35 164 -113 164h-277q-313 0 -239 348t387 349h55l43 204h166l-43 -204h277l-39 -185h-498q-147 0 -182 -164t112 -163h277q313 0 239 -349q-74 -348 -387 -348h-55l-45 -205h-166l45 205h-276z" />
<glyph unicode="%" horiz-adv-x="1548" d="M240 -41l1226 1720h189l-1227 -1720h-188zM375 1331q74 348 387 348t239 -348t-387 -348t-239 348zM541 1331q-35 -164 112 -164t183 160q35 168 -113 168q-147 0 -182 -164zM895 307q74 348 387 348t240 -348q-74 -348 -387 -348q-314 0 -240 348zM1061 307 q-34 -164 113 -164t180 160q37 168 -111 168q-147 0 -182 -164z" />
<glyph unicode="&#x26;" horiz-adv-x="1271" d="M158 307l65 307q35 168 133 256q-59 92 -24 256l43 205q74 348 387 348h221l-39 -184h-221q-147 0 -182 -164l-43 -205q-16 -78 9 -120.5t95 -42.5h782l-38 -185h-277l-135 -635h276l-39 -184h-774q-313 0 -239 348zM324 307q-35 -164 112 -164h332l135 635h-342 q-139 -10 -172 -164z" />
<glyph unicode="'" horiz-adv-x="348" d="M356 1427l54 252h239l-53 -252l-115 -239h-112z" />
<glyph unicode="(" horiz-adv-x="497" d="M194 298q17 263 72 525q55 260 151.5 523.5t231.5 537.5h170q-279 -559 -387 -1063q-53 -256 -70.5 -518t5.5 -549h-170q-20 281 -3 544z" />
<glyph unicode=")" horiz-adv-x="497" d="M25 -246q145 287 240 549t149 518q109 504 67 1063h168q18 -274 2 -537.5t-71 -523.5q-55 -262 -148.5 -525t-236.5 -544h-170z" />
<glyph unicode="*" horiz-adv-x="995" d="M299 954l80 158l256 -119l72 340h153l-72 -340l291 117l19 -158l-299 -118l108 -246l-139 -105l-113 248l-225 -254l-100 101l227 253z" />
<glyph unicode="+" horiz-adv-x="718" d="M193 471l38 184h185l43 205h166l-43 -205h184l-39 -184h-184l-43 -205h-166l43 205h-184z" />
<glyph unicode="," horiz-adv-x="405" d="M82 -227l74 186h-72l53 250h221l-45 -211l-104 -225h-127z" />
<glyph unicode="-" horiz-adv-x="718" d="M193 471l38 184h535l-39 -184h-534z" />
<glyph unicode="." horiz-adv-x="405" d="M84 -41l53 250h221l-53 -250h-221z" />
<glyph unicode="/" horiz-adv-x="794" d="M72 -41l825 1720h174l-827 -1720h-172z" />
<glyph unicode="0" horiz-adv-x="1271" d="M158 307l217 1024q74 348 387 348h461q313 0 239 -348l-219 -1028q-72 -344 -385 -344h-461q-313 0 -239 348zM324 307q-35 -164 112 -164h461q147 0 180 160l219 1028q35 164 -112 164h-461q-147 0 -182 -164z" />
<glyph unicode="1" horiz-adv-x="534" d="M268 -41l291 1372q35 164 -149 164l39 184q350 0 276 -348l-291 -1372h-166z" />
<glyph unicode="2" horiz-adv-x="1087" d="M84 -41l139 655q74 348 387 349h277q147 0 182 163l43 205q35 164 -113 164h-497l39 184h497q313 0 240 -348l-43 -205q-74 -348 -387 -348h-277q-147 0 -182 -164l-100 -471h737l-39 -184h-903z" />
<glyph unicode="3" horiz-adv-x="1087" d="M84 -41l39 184h590q147 0 182 164l66 307q16 78 -9.5 121t-95.5 43h-598l39 185h600q139 10 172 163l43 205q35 164 -113 164h-589l39 184h589q313 0 240 -348l-43 -205q-35 -164 -135 -256q61 -92 26 -256l-65 -307q-74 -348 -387 -348h-590z" />
<glyph unicode="4" horiz-adv-x="1271" d="M150 266l32 154l723 1259h178l-704 -1228h639l260 1228h166l-260 -1228h92l-39 -185h-92l-66 -307h-166l66 307h-829z" />
<glyph unicode="5" horiz-adv-x="1087" d="M84 -41l39 184h590q147 0 180 160l68 311q35 164 -113 164h-590l191 901h811l-39 -184h-646l-112 -532h424q313 0 239 -349l-67 -311q-72 -344 -385 -344h-590z" />
<glyph unicode="6" d="M158 307l217 1024q74 348 387 348h590l-39 -184h-590q-147 0 -182 -164l-217 -1024q-35 -164 112 -164h369q147 0 180 160l68 311q35 164 -113 164h-405l38 185h406q313 0 240 -349l-68 -311q-72 -344 -385 -344h-369q-313 0 -239 348z" />
<glyph unicode="7" horiz-adv-x="1167" d="M315 -41l887 1536h-792l39 184h983l-33 -153l-901 -1567h-183z" />
<glyph unicode="8" horiz-adv-x="1271" d="M158 307l65 307q35 166 139 256q-68 88 -30 256l43 205q74 348 387 348h461q313 0 239 -348l-45 -209q-35 -168 -139 -254q68 -90 33 -254l-68 -311q-72 -344 -385 -344h-461q-313 0 -239 348zM324 307q-35 -164 112 -164h461q147 0 180 160l68 311q35 164 -113 164h-461 q-147 0 -182 -164zM498 1126q-35 -164 112 -163h461q147 0 180 159l45 209q35 164 -112 164h-461q-147 0 -182 -164z" />
<glyph unicode="9" d="M176 -41l39 184h590q147 0 182 164l217 1024q35 164 -112 164h-369q-147 0 -180 -160l-45 -209q-35 -164 112 -163h406l-39 -185h-406q-313 0 -239 348l45 209q72 344 385 344h368q313 0 240 -348l-217 -1024q-74 -348 -387 -348h-590z" />
<glyph unicode=":" horiz-adv-x="405" d="M84 -41l53 250h221l-53 -250h-221zM193 471l53 250h221l-53 -250h-221z" />
<glyph unicode=";" horiz-adv-x="405" d="M82 -227l74 186h-72l53 250h221l-45 -211l-104 -225h-127zM193 471l53 250h221l-53 -250h-221z" />
<glyph unicode="&#x3c;" horiz-adv-x="718" d="M195 481l34 168l631 445l-51 -232l-422 -297l295 -301l-49 -231z" />
<glyph unicode="=" horiz-adv-x="718" d="M150 266l38 185h535l-39 -185h-534zM236 676l38 184h535l-39 -184h-534z" />
<glyph unicode="&#x3e;" horiz-adv-x="718" d="M98 33l49 231l422 297l-295 301l52 232l438 -449l-35 -168z" />
<glyph unicode="?" horiz-adv-x="1087" d="M231 -41l54 250h221l-53 -250h-222zM334 266l74 348q74 348 387 349h92q147 0 182 163l43 205q35 164 -113 164h-589l39 184h589q313 0 240 -348l-43 -205q-74 -348 -387 -348h-92q-147 0 -183 -164l-73 -348h-166z" />
<glyph unicode="@" horiz-adv-x="1548" d="M158 307l217 1024q74 348 387 348h737q313 0 242 -344l-228 -1069h-165l227 1069q33 160 -115 160h-737q-147 0 -182 -164l-217 -1024q-35 -164 112 -164h774l-39 -184h-774q-313 0 -239 348zM500 614v4q74 344 387 345h221l-39 -185h-221q-147 0 -182 -160v-4 q-35 -164 112 -163h185q147 0 182 163l86 410q35 164 -113 164h-405l39 184h405q313 0 240 -348l-86 -410q-74 -348 -387 -348h-185q-313 0 -239 348z" />
<glyph unicode="A" horiz-adv-x="1421" d="M10 -41l981 1720h148l256 -1720h-181l-61 410h-629l105 184h495l-116 858l-820 -1452h-178z" />
<glyph unicode="B" d="M84 -41l365 1720h681q254 0 254 -229q0 -53 -14 -119l-43 -205q-37 -168 -143 -256q47 -60 46 -154q0 -47 -11 -102l-66 -307q-74 -348 -387 -348h-682zM289 143h516q147 0 182 164l66 307q6 30 6 55q0 104 -111 109h-413l38 185h416q139 10 172 163l43 205q7 32 7 57 q0 107 -119 107h-517z" />
<glyph unicode="C" horiz-adv-x="1177" d="M158 307l217 1024q74 348 387 348h682l-39 -184h-682q-147 0 -182 -164l-217 -1024q-7 -32 -7 -57q0 -107 119 -107h682l-39 -184h-682q-253 0 -253 228q0 53 14 120z" />
<glyph unicode="D" horiz-adv-x="1363" d="M84 -41l365 1720h866q253 0 253 -228q0 -54 -14 -120l-219 -1028q-72 -344 -385 -344h-590l39 184h590q147 0 180 160l220 1028q7 31 7 57q0 107 -120 107h-701l-325 -1536h-166z" />
<glyph unicode="E" horiz-adv-x="1087" d="M84 -41l365 1720h903l-39 -184h-738l-112 -532h737l-39 -185h-737l-135 -635h737l-39 -184h-903z" />
<glyph unicode="F" horiz-adv-x="1087" d="M84 -41l365 1720h903l-39 -184h-738l-112 -532h737l-39 -185h-737l-174 -819h-166z" />
<glyph unicode="G" horiz-adv-x="1363" d="M158 307l217 1024q74 348 387 348h774l-39 -184h-774q-147 0 -182 -164l-217 -1024q-7 -32 -7 -57q0 -107 119 -107h553q147 0 180 160l103 475h-461l39 185h627l-142 -660q-72 -344 -385 -344h-553q-253 0 -253 228q0 53 14 120z" />
<glyph unicode="H" horiz-adv-x="1271" d="M84 -41l365 1720h165l-151 -716h756l151 716h166l-365 -1720h-165l174 819h-756l-174 -819h-166z" />
<glyph unicode="I" horiz-adv-x="350" d="M84 -41l365 1720h165l-364 -1720h-166z" />
<glyph unicode="J" horiz-adv-x="774" d="M47 -41l39 184h313q147 0 181 160l292 1376h166l-293 -1376q-72 -344 -385 -344h-313z" />
<glyph unicode="K" horiz-adv-x="1339" d="M84 -41l365 1720h165l-151 -714l979 714h268l-1200 -862l829 -858h-270l-670 709l-149 -709h-166z" />
<glyph unicode="L" horiz-adv-x="1021" d="M74 -41l364 1720h166l-325 -1536h737l-39 -184h-903z" />
<glyph unicode="M" horiz-adv-x="1533" d="M84 -41l365 1720h161l207 -1452l819 1452h162l-364 -1720h-166l260 1231l-694 -1231h-150l-174 1229l-260 -1229h-166z" />
<glyph unicode="N" horiz-adv-x="1363" d="M84 -41l365 1720h147l569 -1396l297 1396h166l-364 -1720h-148l-573 1384l-293 -1384h-166z" />
<glyph unicode="O" horiz-adv-x="1363" d="M158 307l217 1024q74 348 387 348h553q253 0 253 -228q0 -54 -14 -120l-219 -1028q-72 -344 -385 -344h-553q-253 0 -253 228q0 53 14 120zM324 307q-7 -32 -7 -57q0 -107 119 -107h553q147 0 180 160l220 1028q7 31 7 57q0 107 -120 107h-553q-147 0 -182 -164z" />
<glyph unicode="P" d="M84 -41l365 1720h681q254 0 254 -229q0 -53 -14 -119l-43 -205q-74 -348 -387 -348h-405l38 185h406q147 0 182 163l43 205q7 32 7 57q0 107 -119 107h-517l-325 -1536h-166z" />
<glyph unicode="Q" horiz-adv-x="1363" d="M158 307l217 1024q74 348 387 348h553q253 0 253 -228q0 -53 -14 -120l-219 -1028q-72 -344 -385 -344h-192q-1 -9 -1 -17q0 -106 120 -106h129l-39 -184h-129q-254 0 -254 231q0 35 6 76h-193q-253 0 -253 228q0 53 14 120zM324 307q-7 -32 -7 -57q0 -107 119 -107h553 q147 0 180 160l220 1028q7 31 7 57q0 107 -120 107h-553q-147 0 -182 -164z" />
<glyph unicode="R" horiz-adv-x="1183" d="M84 -41l365 1720h681q254 0 254 -229q0 -53 -14 -119l-43 -205q-74 -348 -387 -348h-182l360 -819h-200l-377 846l32 158h406q147 0 182 163l43 205q7 32 7 57q0 107 -119 107h-517l-325 -1536h-166z" />
<glyph unicode="S" horiz-adv-x="1363" d="M176 -41l39 184h774q147 0 180 160l68 311q7 31 7 57q0 107 -120 107h-553q-253 0 -253 228q0 54 14 120l43 205q74 348 387 348h774l-39 -184h-774q-147 0 -182 -164l-43 -205q-7 -32 -7 -57q0 -106 117 -106h2h553q254 0 254 -229q0 -54 -14 -120l-68 -311 q-72 -344 -385 -344h-774z" />
<glyph unicode="T" horiz-adv-x="1148" d="M354 1495l39 184h1075l-38 -184h-449l-326 -1536h-166l326 1536h-461z" />
<glyph unicode="U" horiz-adv-x="1363" d="M158 307l291 1372h165l-290 -1372q-7 -32 -7 -57q0 -107 119 -107h553q147 0 180 160l293 1376h166l-293 -1376q-72 -344 -385 -344h-553q-253 0 -253 228q0 53 14 120z" />
<glyph unicode="V" horiz-adv-x="1421" d="M375 1679h180l207 -1452l819 1452h178l-981 -1720h-149z" />
<glyph unicode="W" horiz-adv-x="1880" d="M383 1679h170l45 -1355l623 1355h151l45 -1355l623 1355h170l-795 -1720h-149l-47 1356l-623 -1356h-150z" />
<glyph unicode="X" horiz-adv-x="1392" d="M-8 -41l776 858l-412 862h209l334 -729l641 729h207l-772 -860l409 -860h-206l-336 727l-639 -727h-211z" />
<glyph unicode="Y" horiz-adv-x="1390" d="M356 1679h209l334 -729l641 729h207l-801 -895l-174 -825h-166l174 825z" />
<glyph unicode="Z" horiz-adv-x="1363" d="M84 -41l33 158l1237 1378h-944l39 184h1179l-33 -157l-1239 -1379h947l-39 -184h-1180z" />
<glyph unicode="[" horiz-adv-x="442" d="M39 -246l455 2130h258l-41 -184h-93l-374 -1766h92l-39 -180h-258z" />
<glyph unicode="\" horiz-adv-x="794" d="M436 1679h174l97 -1720h-172z" />
<glyph unicode="]" horiz-adv-x="442" d="M39 -246l41 185h92l373 1761h-58l41 184h224l-455 -2130h-258z" />
<glyph unicode="^" horiz-adv-x="870" d="M197 573l452 799h150l121 -799h-181l-77 510l-289 -510h-176z" />
<glyph unicode="_" horiz-adv-x="995" d="M18 -348l39 184h811l-39 -184h-811z" />
<glyph unicode="`" horiz-adv-x="626" d="M518 2001l43 205l389 -246l-43 -205z" />
<glyph unicode="a" horiz-adv-x="1161" d="M139 307v4q74 344 387 344h406l-39 -184h-406q-147 0 -182 -160v-4q-7 -31 -7 -57q0 -107 120 -107h368q147 0 183 164l108 512q7 32 7 57q0 107 -119 107h-590l39 184h590q253 0 253 -228q0 -54 -14 -120l-108 -512q-74 -348 -387 -348h-369q-254 0 -254 229 q0 53 14 119z" />
<glyph unicode="b" d="M158 307l291 1372h165l-290 -1372q-7 -32 -7 -57q0 -107 119 -107h369q147 0 182 164l109 512q7 31 7 57q0 107 -120 107h-405l38 184h406q254 0 254 -229q0 -53 -14 -119l-109 -512q-74 -348 -387 -348h-369q-253 0 -253 228q0 53 14 120z" />
<glyph unicode="c" horiz-adv-x="958" d="M158 307l108 512q74 348 387 348h498l-39 -184h-498q-147 0 -182 -164l-108 -512q-7 -32 -7 -57q0 -107 119 -107h498l-39 -184h-498q-253 0 -253 228q0 53 14 120z" />
<glyph unicode="d" d="M158 307l108 512q74 348 387 348h406l-39 -184h-406q-147 0 -182 -164l-108 -512q-7 -32 -7 -57q0 -107 119 -107h369q147 0 182 164l291 1372h166l-291 -1372q-74 -348 -387 -348h-369q-253 0 -253 228q0 53 14 120z" />
<glyph unicode="e" horiz-adv-x="1161" d="M158 307l108 512q74 348 387 348h369q254 0 254 -229q0 -53 -14 -119v-4q-74 -344 -388 -344h-405l39 184h405q147 0 183 160v4q7 31 7 57q0 107 -120 107h-369q-147 0 -182 -164l-108 -512q-7 -32 -7 -57q0 -107 119 -107h590l-39 -184h-590q-253 0 -253 228 q0 53 14 120z" />
<glyph unicode="f" horiz-adv-x="479" d="M84 -41l291 1372q74 348 424 348l-39 -184q-184 0 -219 -164l-35 -164h184l-39 -184h-184l-217 -1024h-166z" />
<glyph unicode="g" d="M158 307l108 512q74 348 387 348h369q254 0 254 -229q0 -53 -14 -119l-197 -921q-74 -348 -387 -349h-406l39 185h406q147 0 182 164l197 921q7 31 7 57q0 107 -120 107h-369q-147 0 -182 -164l-108 -512q-7 -32 -7 -57q0 -107 119 -107h406l-39 -184h-406 q-253 0 -253 228q0 53 14 120z" />
<glyph unicode="h" d="M84 -41l365 1720h165l-108 -512h516q254 0 254 -229q0 -53 -14 -119l-183 -860h-166l183 860q7 31 7 57q0 107 -120 107h-516l-217 -1024h-166z" />
<glyph unicode="i" horiz-adv-x="405" d="M113 -41l256 1208h166l-256 -1208h-166zM395 1430l54 249h221l-54 -249h-221z" />
<glyph unicode="j" horiz-adv-x="413" d="M-152 -451l39 185q184 0 219 164l271 1269h166l-271 -1269q-74 -348 -424 -349zM403 1430l54 249h221l-53 -249h-222z" />
<glyph unicode="k" horiz-adv-x="937" d="M84 -41l365 1720h165l-204 -968l532 456h248l-746 -604l490 -604h-248l-340 455l-96 -455h-166z" />
<glyph unicode="l" horiz-adv-x="350" d="M84 -41l365 1720h165l-364 -1720h-166z" />
<glyph unicode="m" horiz-adv-x="1456" d="M84 -41l256 1208h958q254 0 254 -229q0 -53 -14 -119l-182 -860h-166l182 860q7 32 7 57q0 107 -119 107h-240l-217 -1024h-166l217 1024h-387l-217 -1024h-166z" />
<glyph unicode="n" d="M84 -41l256 1208h682q254 0 254 -229q0 -53 -14 -119l-183 -860h-166l183 860q7 31 7 57q0 107 -120 107h-516l-217 -1024h-166z" />
<glyph unicode="o" d="M158 307l108 512q74 348 387 348h369q254 0 254 -229q0 -53 -14 -119l-111 -516q-72 -344 -385 -344h-369q-253 0 -253 228q0 53 14 120zM324 307q-7 -32 -7 -57q0 -107 119 -107h369q147 0 180 160l111 516q7 31 7 57q0 107 -120 107h-369q-147 0 -182 -164z" />
<glyph unicode="p" d="M18 -348l248 1167q74 348 387 348h369q254 0 254 -229q0 -53 -14 -119l-109 -512q-74 -348 -387 -348h-406l39 184h406q147 0 182 164l109 512q7 31 7 57q0 107 -120 107h-369q-147 0 -182 -164l-248 -1167h-166z" />
<glyph unicode="q" d="M158 307l108 512q74 348 387 348h369q254 0 254 -229q0 -53 -14 -119l-271 -1270h-166l271 1270q7 31 7 57q0 107 -120 107h-369q-147 0 -182 -164l-108 -512q-7 -32 -7 -57q0 -107 119 -107h406l-39 -184h-406q-253 0 -253 228q0 53 14 120z" />
<glyph unicode="r" horiz-adv-x="589" d="M84 -41l182 860q74 348 387 348h129l-39 -184h-129q-147 0 -182 -164l-182 -860h-166z" />
<glyph unicode="s" horiz-adv-x="1050" d="M141 -41l39 184h514q147 0 183 164q7 31 7 57q0 107 -120 107h-277q-253 0 -253 228q0 54 14 120q74 348 387 348h498l-39 -184h-498q-147 0 -182 -164q-7 -32 -7 -57q0 -107 119 -107h277q253 0 253 -228q0 -54 -14 -120q-74 -348 -387 -348h-514z" />
<glyph unicode="t" horiz-adv-x="516" d="M121 -41l217 1024h-92l39 184h92l108 512h154l-109 -512h197l-39 -184h-196l-218 -1024h-153z" />
<glyph unicode="u" d="M158 307l182 860h166l-182 -860q-7 -32 -7 -57q0 -107 119 -107h369q147 0 180 160l184 864h166l-184 -864q-72 -344 -385 -344h-369q-253 0 -253 228q0 53 14 120z" />
<glyph unicode="v" horiz-adv-x="1128" d="M256 1167h180l170 -964l580 964h180l-737 -1208h-150z" />
<glyph unicode="w" horiz-adv-x="1695" d="M258 1167h176l103 -921l485 921h147l103 -921l485 921h176l-645 -1208h-149l-105 918l-481 -918h-150z" />
<glyph unicode="x" horiz-adv-x="1234" d="M41 -41l584 604l-328 604h215l250 -485l457 485h215l-588 -604l332 -604h-215l-252 485l-455 -485h-215z" />
<glyph unicode="y" d="M158 307l182 860h166l-182 -860q-7 -32 -7 -57q0 -107 119 -107h516l217 1024h166l-270 -1269q-74 -348 -387 -349h-406l39 185h406q147 0 182 164l14 61h-516q-253 0 -253 228q0 53 14 120z" />
<glyph unicode="z" d="M84 -41l33 160l942 864h-758l39 184h995l-32 -159l-947 -865h762l-39 -184h-995z" />
<glyph unicode="{" horiz-adv-x="503" d="M184 0l123 580q29 135 -61 139l41 196q92 4 121 140l124 583q53 246 254 246h58l-41 -184q-92 0 -105 -62l-125 -583q-31 -152 -114 -238q45 -90 14 -237l-123 -580q-12 -61 80 -61l-41 -185h-57q-201 0 -148 246z" />
<glyph unicode="|" horiz-adv-x="350" d="M39 -246l455 2130h165l-454 -2130h-166z" />
<glyph unicode="}" horiz-adv-x="503" d="M39 -246l41 185q92 0 104 61l125 584q31 150 113 237q-45 88 -12 238l122 579q12 61 -79 62l41 184h57q201 0 147 -246l-123 -579q-29 -135 62 -139l-41 -197q-92 -4 -121 -139l-125 -584q-53 -246 -254 -246h-57z" />
<glyph unicode="~" horiz-adv-x="2895" d="M209 0v600h2v96h137v58h-37v180h37v63h-37v76h899v-94q-14 27 -49 27q-94 0 -94 -158q0 -156 98 -156q31 0 64 39v-35h49v377h766v-53h70v53h737v-1073h-2642zM211 754v180h39v-180h-39zM211 997v76h39v-76h-39zM268 160h123v86h-45v301h-78v-387zM371 823 q0 -131 94 -131q29 0 51 17q0 -47 -57 -47h-31v-62h43q113 12 113 145v252h-68v-186q0 -53 -41 -53q-39 0 -39 53v186h-65v-174zM422 160h76v73h26v-73h82v141l-53 246h-84l-47 -246v-141zM498 291v39l12 102h4l10 -102v-39h-26zM606 600h68v115q14 -25 49 -25q94 0 94 156 t-98 155q-29 0 -64 -40v36h-49v-397zM637 160h78v170h22v-170h84v155l-30 43v7l30 41v100l-22 41h-162v-387zM668 793v102q12 31 43 31q43 0 43 -78q0 -88 -45 -88q-29 0 -41 33zM715 393v84h22v-84h-22zM831 844q0 -156 111 -156q113 0 113 156q0 160 -113 160 q-111 0 -111 -160zM852 160h78v73h24v-73h78v141l-49 246h-84l-47 -246v-141zM899 844q0 84 43 84q45 0 45 -84q0 -82 -45 -82q-43 0 -43 82zM930 291v39l10 102h6l8 -102v-39h-24zM1065 160h162l22 43v127l-16 28v7l16 28v113l-22 41h-162v-387zM1130 846q0 88 46 88 q27 0 38 -33v-104q-12 -29 -40 -29q-43 0 -44 78zM1145 233v97h22v-97h-22zM1145 393v84h22v-84h-22zM1282 160h80v387h-80v-387zM1296 774q2 -86 93 -86q45 0 70.5 26.5t25.5 82.5h-31q-6 -39 -51 -39q-41 0 -41 28q0 37 41 37h20v37h-20q-41 0 -41 35q0 33 41 33 q35 0 51 -41h31v110h-31v-47q-23 53 -68 54q-88 0 -88 -89q0 -55 45 -73q-47 -18 -47 -68zM1393 160h131v86h-54v80h54v67h-54v72h54v82h-131v-387zM1507 696h90v58h-28v133q0 41 28 41q12 0 25 -13l23 68q-16 14 -35 16q-43 0 -64 -49v47h-39v-301zM1612 160h80v159h49v68 h-49v78h49v82h-129v-387zM1626 696h143v58h-38v125q0 47 38 47q31 0 31 -47v-183h105v58h-39v125q0 45 39 45q31 0 30 -45v-183h68v193q0 111 -96 110q-49 0 -64 -49q-18 49 -57 49q-35 0 -55 -49v47h-66v-243h-39v-58zM1774 203l20 -43h137l25 43v303l-23 41h-139l-20 -41 v-303zM1851 233v244h23v-244h-23zM1987 160h65v250h6l19 -250h118v387h-65v-250h-6l-23 250h-114v-387zM2013 934h31v-238h70v301h-101v-63zM2130 844q0 -154 104 -154q74 0 93 119h-33q-6 -47 -51 -47q-47 0 -48 82q0 84 48 84q47 0 51 -56h33v121h-33v-43q-25 53 -62 54 q-102 0 -102 -160zM2218 465h43v-305h80v305h43v82h-166v-82zM2406 203l23 -43h133l23 43v147l-27 43l-72 17v67h21v-49h78v78l-21 41h-135l-23 -41v-135l25 -41l76 -19v-78h-21v58h-80v-88z" />
<glyph unicode="&#xa1;" horiz-adv-x="405" d="M84 -41l278 1311h166l-278 -1311h-166zM367 1430l53 249h221l-53 -249h-221z" />
<glyph unicode="&#xa2;" horiz-adv-x="903" d="M201 512l65 307q74 348 387 348h9l43 205h165l-43 -205h232l-39 -184h-232l-135 -635h232l-39 -184h-232l-43 -205h-165l43 205h-9q-313 0 -239 348zM367 512q-35 -164 112 -164h8l136 635h-9q-147 0 -182 -164z" />
<glyph unicode="&#xa3;" horiz-adv-x="903" d="M84 -41l174 819h-92l39 185h92l78 368q74 348 387 348h405l-39 -184h-405q-147 0 -182 -164l-78 -368h184l-39 -185h-184l-135 -635h553l-39 -184h-719z" />
<glyph unicode="&#xa4;" horiz-adv-x="1087" d="M215 573l39 185h92l25 123h-92l40 184h93l55 266q74 348 387 348h498l-39 -184h-498q-147 0 -182 -164l-55 -266h368l-41 -184h-368l-25 -123h369l-39 -185h-369l-57 -266q-35 -164 112 -164h498l-39 -184h-498q-313 0 -239 348l57 266h-92z" />
<glyph unicode="&#xa5;" horiz-adv-x="1501" d="M393 1679h209l334 -729l641 729h207l-801 -895l-174 -825h-166l174 825zM486 266l38 185h535l-39 -185h-534zM572 676l38 184h535l-39 -184h-534z" />
<glyph unicode="&#xa6;" horiz-adv-x="350" d="M39 -246l215 1004h166l-215 -1004h-166zM324 1085l170 799h165l-170 -799h-165z" />
<glyph unicode="&#xa7;" horiz-adv-x="1087" d="M266 819q35 166 133 256q-59 86 -24 256q74 348 387 348h350l-39 -184h-350q-147 0 -182 -164t112 -164h277q313 0 239 -348q-35 -164 -135 -256q61 -92 27 -256q-74 -348 -387 -348h-350l38 184h351q147 0 182 164t-113 164h-276q-313 0 -240 348zM432 819 q-33 -154 96 -164h293q147 0 183 164q35 164 -113 164h-277q-147 0 -182 -164z" />
<glyph unicode="&#xa8;" horiz-adv-x="903" d="M526 1782l62 286h258l-62 -286h-258zM877 1782l61 286h258l-61 -286h-258z" />
<glyph unicode="&#xa9;" horiz-adv-x="1640" d="M158 307l217 1024q74 348 387 348h829q313 0 240 -348l-219 -1028q-72 -344 -385 -344h-830q-313 0 -239 348zM324 307q-35 -164 112 -164h830q147 0 180 160l219 1028q35 164 -113 164h-829q-147 0 -182 -164zM500 614l86 410q74 348 387 348h497l-38 -184h-498 q-147 0 -182 -164l-86 -410q-35 -164 112 -163h498l-39 -185h-498q-313 0 -239 348z" />
<glyph unicode="&#xaa;" horiz-adv-x="718" d="M354 1243v2q45 207 232 207h178l4 18q4 18 -12 19h-307l38 190h308q186 0 143 -209l-49 -227q-45 -209 -232 -209h-161q-186 0 -142 209zM524 1243q-4 -18 13 -18h161q16 0 21 18l4 19h-178q-16 0 -21 -17v-2z" />
<glyph unicode="&#xab;" horiz-adv-x="995" d="M195 481l34 168l521 367l-50 -232l-313 -219l219 -225l-49 -229zM563 481l35 168l520 367l-49 -232l-313 -219l219 -225l-49 -229z" />
<glyph unicode="&#xad;" horiz-adv-x="718" d="M193 471l38 184h535l-39 -184h-534z" />
<glyph unicode="&#xae;" horiz-adv-x="1200" d="M266 817l109 512q74 348 387 348h368q313 0 240 -348l-110 -516q-72 -344 -386 -344h-368q-313 0 -240 348zM410 797q-35 -164 112 -164h387q166 0 199 160l119 557q35 164 -131 163h-387q-147 0 -183 -163zM485 717l160 751h348q186 0 142 -215l-11 -53 q-41 -190 -196 -213l143 -270h-231l-131 250l-54 -250h-170zM754 1178h178q16 0 22 22l11 53q4 20 -13 21h-178z" />
<glyph unicode="&#xaf;" horiz-adv-x="718" d="M487 1864l41 184h535l-41 -184h-535z" />
<glyph unicode="&#xb0;" horiz-adv-x="811" d="M375 1331q74 348 387 348t239 -348t-387 -348t-239 348zM541 1331q-35 -164 112 -164t183 160q35 168 -113 168q-147 0 -182 -164z" />
<glyph unicode="&#xb1;" horiz-adv-x="718" d="M123 -43l38 184h535l-39 -184h-534zM230 471l38 184h185l43 205h166l-43 -205h184l-39 -184h-184l-43 -205h-166l43 205h-184z" />
<glyph unicode="&#xb2;" horiz-adv-x="671" d="M252 778l76 357q45 215 229 215h121q14 0 18 20l21 94q4 23 -10 23h-267l41 192h267q184 0 139 -215l-21 -94q-45 -215 -229 -215h-121q-16 0 -20 -20l-35 -164h321l-41 -193h-489z" />
<glyph unicode="&#xb3;" horiz-adv-x="671" d="M258 778l41 193h303q16 0 21 22l30 142q4 20 -12 20h-303l41 195h307q12 0 16 20l21 94q4 23 -12 23h-303l41 192h303q184 0 139 -215l-21 -94q-8 -37 -20 -65.5t-29 -53.5q14 -51 0 -116l-30 -142q-45 -215 -230 -215h-303z" />
<glyph unicode="&#xb4;" horiz-adv-x="626" d="M465 1755l45 207l494 244l-43 -205z" />
<glyph unicode="&#xb6;" horiz-adv-x="921" d="M319 1290q82 389 396 389h469l-365 -1720h-166l283 1331h-137l-283 -1331h-166l326 1536q-147 -2 -191 -205h-166z" />
<glyph unicode="&#xb8;" horiz-adv-x="491" d="M0 -430l35 164h125q35 0 43 30q6 31 -29 31h-125l35 164h129q178 0 137 -195q-43 -195 -225 -194h-125z" />
<glyph unicode="&#xb9;" horiz-adv-x="391" d="M322 778l145 686q4 23 -59 23l41 192q211 0 165 -215l-145 -686h-147z" />
<glyph unicode="&#xbb;" horiz-adv-x="995" d="M115 111l49 231l313 219l-217 225l47 230l365 -371l-35 -168zM483 111l49 231l314 219l-217 225l47 230l364 -371l-34 -168z" />
<glyph unicode="&#xbc;" horiz-adv-x="1449" d="M176 -41l1227 1720h188l-1226 -1720h-189zM352 778l146 686q4 23 -82 23l41 192q260 0 215 -215l-146 -686h-174zM782 100l31 142l358 618h334l-119 -565h44l-44 -195h-43l-28 -141h-174l28 141h-387zM1034 295h178l103 483z" />
<glyph unicode="&#xbd;" horiz-adv-x="1488" d="M182 -41l1227 1720h188l-1226 -1720h-189zM344 778l145 686q4 23 -81 23l41 192q264 0 219 -215l-146 -686h-178zM848 -41l76 356q45 215 241 215h131q20 0 25 21l20 94q4 23 -16 23h-287l41 192h287q197 0 152 -215l-21 -94q-45 -215 -242 -215h-131q-20 0 -24 -21 l-35 -163h348l-41 -193h-524z" />
<glyph unicode="&#xbe;" horiz-adv-x="1556" d="M258 778l41 193h328q20 0 24 22l31 142q2 16 -16 20h-328l41 195h332q16 0 20 20l21 94q4 23 -17 23h-327l41 192h327q197 0 152 -215l-21 -94q-14 -74 -49 -119q14 -45 0 -116l-31 -142q-45 -215 -241 -215h-328zM293 -41l1227 1720h188l-1227 -1720h-188zM881 100 l28 136l367 624h336l-119 -565h45l-43 -195h-45l-29 -141h-176l29 141h-393zM1133 295h184l102 483z" />
<glyph unicode="&#xbf;" horiz-adv-x="1087" d="M303 307l43 205q74 348 387 348h92q147 0 183 164l73 348h166l-73 -348q-74 -348 -388 -348h-92q-147 0 -182 -164l-43 -205q-35 -164 113 -164h589l-38 -184h-590q-313 0 -240 348zM1075 1430l53 249h222l-54 -249h-221z" />
<glyph unicode="&#xc0;" horiz-adv-x="1402" d="M47 -41l981 1720h148l256 -1720h-181l-61 410h-629l105 184h495l-116 858l-820 -1452h-178zM899 2001l43 205l389 -246l-43 -205z" />
<glyph unicode="&#xc1;" horiz-adv-x="1402" d="M47 -41l981 1720h148l256 -1720h-181l-61 410h-629l105 184h495l-116 858l-820 -1452h-178zM934 1755l45 207l494 244l-43 -205z" />
<glyph unicode="&#xc2;" horiz-adv-x="1402" d="M47 -41l981 1720h148l256 -1720h-181l-61 410h-629l105 184h495l-116 858l-820 -1452h-178zM862 1782l259 389h151l88 -389h-184l-33 143l-96 -143h-185z" />
<glyph unicode="&#xc3;" horiz-adv-x="1402" d="M47 -41l981 1720h148l256 -1720h-181l-61 410h-629l105 184h495l-116 858l-820 -1452h-178zM749 1888l96 84q43 29 78 40t68 11q43 0 89 -12t85 -29h-2q35 -10 70.5 -23t72.5 -13q23 0 53.5 18t75.5 66l88 -138l-94 -84q-43 -29 -79 -40t-70 -11q-43 0 -88 12.5t-84 28.5 h2q-35 10 -73 23.5t-73 13.5q-20 0 -51 -18.5t-76 -65.5z" />
<glyph unicode="&#xc4;" horiz-adv-x="1402" d="M47 -41l981 1720h148l256 -1720h-181l-61 410h-629l105 184h495l-116 858l-820 -1452h-178zM811 1782l62 286h258l-62 -286h-258zM1162 1782l61 286h258l-61 -286h-258z" />
<glyph unicode="&#xc5;" horiz-adv-x="1402" d="M47 -41l981 1720h148l256 -1720h-181l-61 410h-629l105 184h495l-116 858l-820 -1452h-178zM969 1919q41 195 215 195q178 0 137 -195q-41 -197 -219 -197q-174 0 -133 197zM1100 1919q-12 -55 31 -55q51 0 63 51q10 53 -41 53q-43 0 -53 -49z" />
<glyph unicode="&#xc6;" horiz-adv-x="1667" d="M-2 -41l1247 1720h686l-39 -184h-536l-156 -737h537l-39 -185h-537l-92 -430h537l-39 -184h-703l131 614h-358l-449 -614h-190zM770 758h264l107 506z" />
<glyph unicode="&#xc7;" horiz-adv-x="1177" d="M195 307l217 1024q74 348 387 348h682l-39 -184h-682q-147 0 -182 -164l-217 -1024q-35 -164 112 -164h682l-39 -184h-682q-313 0 -239 348zM489 -430l35 164h125q35 0 43 30q6 31 -29 31h-125l35 164h129q178 0 137 -195q-43 -195 -225 -194h-125z" />
<glyph unicode="&#xc8;" horiz-adv-x="1087" d="M121 -41l365 1720h903l-39 -184h-738l-112 -532h737l-39 -185h-737l-135 -635h737l-39 -184h-903zM768 2001l43 205l389 -246l-43 -205z" />
<glyph unicode="&#xc9;" horiz-adv-x="1087" d="M121 -41l365 1720h903l-39 -184h-738l-112 -532h737l-39 -185h-737l-135 -635h737l-39 -184h-903zM768 1755l45 207l494 244l-43 -205z" />
<glyph unicode="&#xca;" horiz-adv-x="1087" d="M121 -41l365 1720h903l-39 -184h-738l-112 -532h737l-39 -185h-737l-135 -635h737l-39 -184h-903zM733 1782l259 389h151l88 -389h-184l-33 143l-96 -143h-185z" />
<glyph unicode="&#xcb;" horiz-adv-x="1087" d="M121 -41l365 1720h903l-39 -184h-738l-112 -532h737l-39 -185h-737l-135 -635h737l-39 -184h-903zM647 1782l62 286h258l-62 -286h-258zM998 1782l61 286h258l-61 -286h-258z" />
<glyph unicode="&#xcc;" horiz-adv-x="350" d="M121 -41l365 1720h165l-364 -1720h-166zM373 2001l43 205l389 -246l-43 -205z" />
<glyph unicode="&#xcd;" horiz-adv-x="350" d="M121 -41l365 1720h165l-364 -1720h-166zM416 1755l45 207l494 244l-43 -205z" />
<glyph unicode="&#xce;" horiz-adv-x="350" d="M121 -41l365 1720h165l-364 -1720h-166zM346 1782l259 389h151l88 -389h-184l-33 143l-96 -143h-185z" />
<glyph unicode="&#xcf;" horiz-adv-x="350" d="M121 -41l365 1720h165l-364 -1720h-166zM299 1782l62 286h258l-62 -286h-258zM650 1782l61 286h258l-61 -286h-258z" />
<glyph unicode="&#xd0;" horiz-adv-x="1456" d="M140 471l38 184h535l-39 -184h-534zM213 -41l365 1720h866q313 0 239 -348l-219 -1028q-72 -344 -385 -344h-590l39 184h590q147 0 180 160l220 1028q35 164 -113 164h-701l-325 -1536h-166z" />
<glyph unicode="&#xd1;" horiz-adv-x="1363" d="M121 -41l365 1720h147l569 -1396l297 1396h166l-364 -1720h-148l-573 1384l-293 -1384h-166zM735 1888l96 84q43 29 78 40t68 11q43 0 89 -12t85 -29h-2q35 -10 70.5 -23t72.5 -13q23 0 53.5 18t75.5 66l88 -138l-94 -84q-43 -29 -79 -40t-70 -11q-43 0 -88 12.5 t-84 28.5h2q-35 10 -73 23.5t-73 13.5q-20 0 -51 -18.5t-76 -65.5z" />
<glyph unicode="&#xd2;" horiz-adv-x="1363" d="M195 307l217 1024q74 348 387 348h553q313 0 239 -348l-219 -1028q-72 -344 -385 -344h-553q-313 0 -239 348zM361 307q-35 -164 112 -164h553q147 0 180 160l220 1028q35 164 -113 164h-553q-147 0 -182 -164zM876 2001l43 205l389 -246l-43 -205z" />
<glyph unicode="&#xd3;" horiz-adv-x="1363" d="M195 307l217 1024q74 348 387 348h553q313 0 239 -348l-219 -1028q-72 -344 -385 -344h-553q-313 0 -239 348zM361 307q-35 -164 112 -164h553q147 0 180 160l220 1028q35 164 -113 164h-553q-147 0 -182 -164zM864 1755l45 207l494 244l-43 -205z" />
<glyph unicode="&#xd4;" horiz-adv-x="1363" d="M195 307l217 1024q74 348 387 348h553q313 0 239 -348l-219 -1028q-72 -344 -385 -344h-553q-313 0 -239 348zM361 307q-35 -164 112 -164h553q147 0 180 160l220 1028q35 164 -113 164h-553q-147 0 -182 -164zM841 1782l259 389h151l88 -389h-184l-33 143l-96 -143h-185 z" />
<glyph unicode="&#xd5;" horiz-adv-x="1363" d="M195 307l217 1024q74 348 387 348h553q313 0 239 -348l-219 -1028q-72 -344 -385 -344h-553q-313 0 -239 348zM361 307q-35 -164 112 -164h553q147 0 180 160l220 1028q35 164 -113 164h-553q-147 0 -182 -164zM733 1888l96 84q43 29 78 40t68 11q43 0 89 -12t85 -29h-2 q35 -10 70.5 -23t72.5 -13q23 0 53.5 18t75.5 66l88 -138l-94 -84q-43 -29 -79 -40t-70 -11q-43 0 -88 12.5t-84 28.5h2q-35 10 -73 23.5t-73 13.5q-20 0 -51 -18.5t-76 -65.5z" />
<glyph unicode="&#xd6;" horiz-adv-x="1363" d="M195 307l217 1024q74 348 387 348h553q313 0 239 -348l-219 -1028q-72 -344 -385 -344h-553q-313 0 -239 348zM361 307q-35 -164 112 -164h553q147 0 180 160l220 1028q35 164 -113 164h-553q-147 0 -182 -164zM792 1782l62 286h258l-62 -286h-258zM1143 1782l61 286h258 l-61 -286h-258z" />
<glyph unicode="&#xd7;" horiz-adv-x="917" d="M115 336l377 381l-222 389l162 104l201 -356l360 363l101 -119l-381 -381l225 -389l-162 -103l-203 353l-358 -361z" />
<glyph unicode="&#xd8;" horiz-adv-x="1363" d="M195 307l217 1024q74 348 387 348h553q313 0 239 -348l-219 -1028q-72 -344 -385 -344h-553q-313 0 -239 348zM361 307q-35 -164 112 -164h553q147 0 180 160l220 1028q35 164 -113 164h-553q-147 0 -182 -164zM387 -41l825 1720h174l-827 -1720h-172z" />
<glyph unicode="&#xd9;" horiz-adv-x="1363" d="M195 307l291 1372h165l-290 -1372q-35 -164 112 -164h553q147 0 180 160l293 1376h166l-293 -1376q-72 -344 -385 -344h-553q-313 0 -239 348zM913 2001l43 205l389 -246l-43 -205z" />
<glyph unicode="&#xda;" horiz-adv-x="1363" d="M195 307l291 1372h165l-290 -1372q-35 -164 112 -164h553q147 0 180 160l293 1376h166l-293 -1376q-72 -344 -385 -344h-553q-313 0 -239 348zM868 1755l45 207l494 244l-43 -205z" />
<glyph unicode="&#xdb;" horiz-adv-x="1363" d="M195 307l291 1372h165l-290 -1372q-35 -164 112 -164h553q147 0 180 160l293 1376h166l-293 -1376q-72 -344 -385 -344h-553q-313 0 -239 348zM849 1782l259 389h151l88 -389h-184l-33 143l-96 -143h-185z" />
<glyph unicode="&#xdc;" horiz-adv-x="1363" d="M195 307l291 1372h165l-290 -1372q-35 -164 112 -164h553q147 0 180 160l293 1376h166l-293 -1376q-72 -344 -385 -344h-553q-313 0 -239 348zM784 1782l62 286h258l-62 -286h-258zM1135 1782l61 286h258l-61 -286h-258z" />
<glyph unicode="&#xdd;" horiz-adv-x="1501" d="M393 1679h209l334 -729l641 729h207l-801 -895l-174 -825h-166l174 825zM957 1755l45 207l494 244l-43 -205z" />
<glyph unicode="&#xde;" horiz-adv-x="993" d="M84 -41l365 1720h165l-65 -307h332q313 0 239 -348l-108 -512q-74 -348 -387 -348h-332l-43 -205h-166zM332 348h332q147 0 182 164l108 512q35 164 -112 164h-332z" />
<glyph unicode="&#xdf;" horiz-adv-x="1458" d="M84 -41l291 1372q74 348 387 348h645q313 0 240 -348l-43 -205q-35 -164 -136 -256q61 -92 27 -256l-65 -307q-74 -348 -388 -348h-682l39 184h682q147 0 183 164l65 307q16 78 -9.5 121t-94.5 43h-690l38 185h693q139 10 172 163l43 205q35 164 -113 164h-645 q-147 0 -182 -164l-291 -1372h-166z" />
<glyph unicode="&#xe0;" d="M176 307v4q74 344 387 344h406l-39 -184h-406q-147 0 -182 -160v-4q-35 -164 113 -164h368q147 0 183 164l108 512q35 164 -112 164h-590l39 184h590q313 0 239 -348l-108 -512q-74 -348 -387 -348h-369q-313 0 -240 348zM702 1493l43 205l389 -246l-43 -205z" />
<glyph unicode="&#xe1;" d="M176 307v4q74 344 387 344h406l-39 -184h-406q-147 0 -182 -160v-4q-35 -164 113 -164h368q147 0 183 164l108 512q35 164 -112 164h-590l39 184h590q313 0 239 -348l-108 -512q-74 -348 -387 -348h-369q-313 0 -240 348zM664 1247l45 207l494 244l-43 -205z" />
<glyph unicode="&#xe2;" d="M176 307v4q74 344 387 344h406l-39 -184h-406q-147 0 -182 -160v-4q-35 -164 113 -164h368q147 0 183 164l108 512q35 164 -112 164h-590l39 184h590q313 0 239 -348l-108 -512q-74 -348 -387 -348h-369q-313 0 -240 348zM641 1274l259 389h151l88 -389h-184l-33 143 l-96 -143h-185z" />
<glyph unicode="&#xe3;" d="M176 307v4q74 344 387 344h406l-39 -184h-406q-147 0 -182 -160v-4q-35 -164 113 -164h368q147 0 183 164l108 512q35 164 -112 164h-590l39 184h590q313 0 239 -348l-108 -512q-74 -348 -387 -348h-369q-313 0 -240 348zM532 1380l96 84q43 29 78 40t68 11q43 0 89 -12 t85 -29h-2q35 -10 70.5 -23t72.5 -13q23 0 53.5 18t75.5 66l88 -138l-94 -84q-43 -29 -79 -40t-70 -11q-43 0 -88 12.5t-84 28.5h2q-35 10 -73 23.5t-73 13.5q-20 0 -51 -18.5t-76 -65.5z" />
<glyph unicode="&#xe4;" d="M176 307v4q74 344 387 344h406l-39 -184h-406q-147 0 -182 -160v-4q-35 -164 113 -164h368q147 0 183 164l108 512q35 164 -112 164h-590l39 184h590q313 0 239 -348l-108 -512q-74 -348 -387 -348h-369q-313 0 -240 348zM587 1274l62 286h258l-62 -286h-258zM938 1274 l61 286h258l-61 -286h-258z" />
<glyph unicode="&#xe5;" d="M176 307v4q74 344 387 344h406l-39 -184h-406q-147 0 -182 -160v-4q-35 -164 113 -164h368q147 0 183 164l108 512q35 164 -112 164h-590l39 184h590q313 0 239 -348l-108 -512q-74 -348 -387 -348h-369q-313 0 -240 348zM748 1411q41 195 215 195q178 0 137 -195 q-41 -197 -219 -197q-174 0 -133 197zM879 1411q-12 -55 31 -55q51 0 63 51q10 53 -41 53q-43 0 -53 -49z" />
<glyph unicode="&#xe6;" horiz-adv-x="1638" d="M156 307v4q74 344 387 344h221l-39 -184h-221q-147 0 -182 -160v-4q-35 -164 112 -164h184q147 0 183 164l110 520q16 78 -14.5 117t-99.5 39h-406l39 184h406q150 0 211 -98q98 98 249 98h185q313 0 239 -348v-4q-74 -344 -387 -344h-221l39 184h221q147 0 182 160v4 q35 164 -112 164h-185q-68 0 -115.5 -41t-66.5 -125l-108 -510q-18 -84 12.5 -124t99.5 -40h406l-39 -184h-406q-150 0 -209 96q-102 -96 -251 -96h-185q-313 0 -239 348z" />
<glyph unicode="&#xe7;" horiz-adv-x="995" d="M195 307l108 512q74 348 387 348h498l-39 -184h-498q-147 0 -182 -164l-108 -512q-35 -164 112 -164h498l-39 -184h-498q-313 0 -239 348zM401 -430l35 164h125q35 0 43 30q6 31 -29 31h-125l35 164h129q178 0 137 -195q-43 -195 -225 -194h-125z" />
<glyph unicode="&#xe8;" d="M195 307l108 512q74 348 387 348h369q313 0 240 -348v-4q-74 -344 -388 -344h-405l39 184h405q147 0 183 160v4q35 164 -113 164h-369q-147 0 -182 -164l-108 -512q-35 -164 112 -164h590l-39 -184h-590q-313 0 -239 348zM725 1493l43 205l389 -246l-43 -205z" />
<glyph unicode="&#xe9;" d="M195 307l108 512q74 348 387 348h369q313 0 240 -348v-4q-74 -344 -388 -344h-405l39 184h405q147 0 183 160v4q35 164 -113 164h-369q-147 0 -182 -164l-108 -512q-35 -164 112 -164h590l-39 -184h-590q-313 0 -239 348zM668 1247l45 207l494 244l-43 -205z" />
<glyph unicode="&#xea;" d="M195 307l108 512q74 348 387 348h369q313 0 240 -348v-4q-74 -344 -388 -344h-405l39 184h405q147 0 183 160v4q35 164 -113 164h-369q-147 0 -182 -164l-108 -512q-35 -164 112 -164h590l-39 -184h-590q-313 0 -239 348zM649 1274l259 389h151l88 -389h-184l-33 143 l-96 -143h-185z" />
<glyph unicode="&#xeb;" d="M195 307l108 512q74 348 387 348h369q313 0 240 -348v-4q-74 -344 -388 -344h-405l39 184h405q147 0 183 160v4q35 164 -113 164h-369q-147 0 -182 -164l-108 -512q-35 -164 112 -164h590l-39 -184h-590q-313 0 -239 348zM596 1274l62 286h258l-62 -286h-258zM947 1274 l61 286h258l-61 -286h-258z" />
<glyph unicode="&#xec;" horiz-adv-x="350" d="M121 -41l256 1208h166l-256 -1208h-166zM301 1493l43 205l389 -246l-43 -205z" />
<glyph unicode="&#xed;" horiz-adv-x="350" d="M121 -41l256 1208h166l-256 -1208h-166zM283 1247l45 207l494 244l-43 -205z" />
<glyph unicode="&#xee;" horiz-adv-x="350" d="M121 -41l256 1208h166l-256 -1208h-166zM239 1274l259 389h151l88 -389h-184l-33 143l-96 -143h-185z" />
<glyph unicode="&#xef;" horiz-adv-x="350" d="M121 -41l256 1208h166l-256 -1208h-166zM186 1274l62 286h258l-62 -286h-258zM537 1274l61 286h258l-61 -286h-258z" />
<glyph unicode="&#xf0;" d="M156 303l67 311q74 348 387 349h406l-39 -185h-406q-147 0 -182 -164l-67 -311q-33 -160 114 -160h369q147 0 182 164l166 778h-461l39 185h461l12 61q35 164 -112 164h-590l39 184h589q313 0 240 -348l-12 -61h92l-39 -185h-92l-166 -778q-74 -348 -387 -348h-369 q-313 0 -241 344z" />
<glyph unicode="&#xf1;" d="M121 -41l256 1208h682q313 0 240 -348l-183 -860h-166l183 860q35 164 -113 164h-516l-217 -1024h-166zM528 1380l96 84q43 29 78 40t68 11q43 0 89 -12t85 -29h-2q35 -10 70.5 -23t72.5 -13q23 0 53.5 18t75.5 66l88 -138l-94 -84q-43 -29 -79 -40t-70 -11 q-43 0 -88 12.5t-84 28.5h2q-35 10 -73 23.5t-73 13.5q-20 0 -51 -18.5t-76 -65.5z" />
<glyph unicode="&#xf2;" d="M195 307l108 512q74 348 387 348h369q313 0 240 -348l-111 -516q-72 -344 -385 -344h-369q-313 0 -239 348zM361 307q-35 -164 112 -164h369q147 0 180 160l111 516q35 164 -113 164h-369q-147 0 -182 -164zM725 1493l43 205l389 -246l-43 -205z" />
<glyph unicode="&#xf3;" d="M195 307l108 512q74 348 387 348h369q313 0 240 -348l-111 -516q-72 -344 -385 -344h-369q-313 0 -239 348zM361 307q-35 -164 112 -164h369q147 0 180 160l111 516q35 164 -113 164h-369q-147 0 -182 -164zM668 1247l45 207l494 244l-43 -205z" />
<glyph unicode="&#xf4;" d="M195 307l108 512q74 348 387 348h369q313 0 240 -348l-111 -516q-72 -344 -385 -344h-369q-313 0 -239 348zM361 307q-35 -164 112 -164h369q147 0 180 160l111 516q35 164 -113 164h-369q-147 0 -182 -164zM649 1274l259 389h151l88 -389h-184l-33 143l-96 -143h-185z " />
<glyph unicode="&#xf5;" d="M195 307l108 512q74 348 387 348h369q313 0 240 -348l-111 -516q-72 -344 -385 -344h-369q-313 0 -239 348zM361 307q-35 -164 112 -164h369q147 0 180 160l111 516q35 164 -113 164h-369q-147 0 -182 -164zM542 1380l96 84q43 29 78 40t68 11q43 0 89 -12t85 -29h-2 q35 -10 70.5 -23t72.5 -13q23 0 53.5 18t75.5 66l88 -138l-94 -84q-43 -29 -79 -40t-70 -11q-43 0 -88 12.5t-84 28.5h2q-35 10 -73 23.5t-73 13.5q-20 0 -51 -18.5t-76 -65.5z" />
<glyph unicode="&#xf6;" d="M195 307l108 512q74 348 387 348h369q313 0 240 -348l-111 -516q-72 -344 -385 -344h-369q-313 0 -239 348zM361 307q-35 -164 112 -164h369q147 0 180 160l111 516q35 164 -113 164h-369q-147 0 -182 -164zM589 1274l62 286h258l-62 -286h-258zM940 1274l61 286h258 l-61 -286h-258z" />
<glyph unicode="&#xf7;" horiz-adv-x="718" d="M230 471l38 184h535l-39 -184h-534zM324 184l53 250h221l-53 -250h-221zM433 696l53 250h221l-53 -250h-221z" />
<glyph unicode="&#xf8;" d="M158 307l108 512q74 348 387 348h369q313 0 240 -348l-111 -516q-72 -344 -385 -344h-369q-313 0 -239 348zM324 307q-35 -162 104 -164l412 840h-226q-147 0 -182 -164zM604 143h201q147 0 180 160l111 516q31 143 -86 162z" />
<glyph unicode="&#xf9;" d="M195 307l182 860h166l-182 -860q-35 -164 112 -164h369q147 0 180 160l184 864h166l-184 -864q-72 -344 -385 -344h-369q-313 0 -239 348zM721 1493l43 205l389 -246l-43 -205z" />
<glyph unicode="&#xfa;" d="M195 307l182 860h166l-182 -860q-35 -164 112 -164h369q147 0 180 160l184 864h166l-184 -864q-72 -344 -385 -344h-369q-313 0 -239 348zM672 1247l45 207l494 244l-43 -205z" />
<glyph unicode="&#xfb;" d="M195 307l182 860h166l-182 -860q-35 -164 112 -164h369q147 0 180 160l184 864h166l-184 -864q-72 -344 -385 -344h-369q-313 0 -239 348zM641 1274l259 389h151l88 -389h-184l-33 143l-96 -143h-185z" />
<glyph unicode="&#xfc;" d="M195 307l182 860h166l-182 -860q-35 -164 112 -164h369q147 0 180 160l184 864h166l-184 -864q-72 -344 -385 -344h-369q-313 0 -239 348zM585 1274l62 286h258l-62 -286h-258zM936 1274l61 286h258l-61 -286h-258z" />
<glyph unicode="&#xfd;" d="M195 307l182 860h166l-182 -860q-35 -164 112 -164h516l217 1024h166l-270 -1269q-74 -348 -387 -349h-406l39 185h406q147 0 182 164l14 61h-516q-313 0 -239 348zM668 1247l45 207l494 244l-43 -205z" />
<glyph unicode="&#xfe;" horiz-adv-x="993" d="M121 -41l365 1720h165l-65 -307h332q313 0 239 -348l-108 -512q-74 -348 -387 -348h-332l-43 -205h-166zM369 348h332q147 0 182 164l108 512q35 164 -112 164h-332z" />
<glyph unicode="&#xff;" d="M195 307l182 860h166l-182 -860q-35 -164 112 -164h516l217 1024h166l-270 -1269q-74 -348 -387 -349h-406l39 185h406q147 0 182 164l14 61h-516q-313 0 -239 348zM587 1274l62 286h258l-62 -286h-258zM938 1274l61 286h258l-61 -286h-258z" />
<glyph unicode="&#x152;" horiz-adv-x="1478" d="M160 307l217 1024q74 348 387 348h184q43 0 78 -8t61 -24l7 32h665l-39 -184h-497l-113 -532h498l-39 -185h-500l-135 -635h500l-39 -184h-666l6 33q-35 -16 -71.5 -24.5t-79.5 -8.5h-185q-313 0 -239 348zM326 307q-35 -164 112 -164h185q133 0 172 125l233 1098 q12 129 -119 129h-184q-147 0 -182 -164z" />
<glyph unicode="&#x153;" horiz-adv-x="1740" d="M154 307l108 512q74 348 387 348h240q150 0 211 -98q98 98 250 98h239q313 0 240 -348v-4q-74 -344 -387 -344h-277l39 184h277q147 0 182 160v4q35 164 -113 164h-239q-68 0 -116 -41t-67 -125l-108 -508q-18 -84 14.5 -125t98.5 -41h460l-39 -184h-460q-150 0 -209 96 q-102 -96 -252 -96h-240q-313 0 -239 348zM319 307q-35 -164 113 -164h240q68 0 116 40t66 124l109 512q35 164 -113 164h-240q-147 0 -182 -164z" />
<glyph unicode="&#x178;" horiz-adv-x="1501" d="M393 1679h209l334 -729l641 729h207l-801 -895l-174 -825h-166l174 825zM862 1782l62 286h258l-62 -286h-258zM1213 1782l61 286h258l-61 -286h-258z" />
<glyph unicode="&#x2c6;" horiz-adv-x="634" d="M446 1782l259 389h151l88 -389h-184l-33 143l-96 -143h-185z" />
<glyph unicode="&#x2dc;" horiz-adv-x="929" d="M479 1888l96 84q43 29 78 40t68 11q43 0 89 -12t85 -29h-2q35 -10 70.5 -23t72.5 -13q23 0 53.5 18t75.5 66l88 -138l-94 -84q-43 -29 -79 -40t-70 -11q-43 0 -88 12.5t-84 28.5h2q-35 10 -73 23.5t-73 13.5q-20 0 -51 -18.5t-76 -65.5z" />
<glyph unicode="&#x2000;" horiz-adv-x="1103" />
<glyph unicode="&#x2001;" horiz-adv-x="2206" />
<glyph unicode="&#x2002;" horiz-adv-x="1103" />
<glyph unicode="&#x2003;" horiz-adv-x="2206" />
<glyph unicode="&#x2004;" horiz-adv-x="735" />
<glyph unicode="&#x2005;" horiz-adv-x="551" />
<glyph unicode="&#x2006;" horiz-adv-x="367" />
<glyph unicode="&#x2007;" horiz-adv-x="367" />
<glyph unicode="&#x2008;" horiz-adv-x="275" />
<glyph unicode="&#x2009;" horiz-adv-x="441" />
<glyph unicode="&#x200a;" horiz-adv-x="122" />
<glyph unicode="&#x2010;" horiz-adv-x="718" d="M193 471l38 184h535l-39 -184h-534z" />
<glyph unicode="&#x2011;" horiz-adv-x="718" d="M193 471l38 184h535l-39 -184h-534z" />
<glyph unicode="&#x2012;" horiz-adv-x="718" d="M193 471l38 184h535l-39 -184h-534z" />
<glyph unicode="&#x2013;" horiz-adv-x="985" d="M193 471l38 184h801l-39 -184h-800z" />
<glyph unicode="&#x2014;" horiz-adv-x="1640" d="M215 573l39 185h1456l-39 -185h-1456z" />
<glyph unicode="&#x2018;" horiz-adv-x="337" d="M354 1389l45 210l103 226h127l-72 -187h72l-54 -249h-221z" />
<glyph unicode="&#x2019;" horiz-adv-x="319" d="M354 1243l72 187h-72l54 249h221l-45 -211l-103 -225h-127z" />
<glyph unicode="&#x201a;" horiz-adv-x="405" d="M119 -227l74 186h-72l53 250h221l-45 -211l-104 -225h-127z" />
<glyph unicode="&#x201c;" horiz-adv-x="684" d="M391 1389l45 210l103 226h127l-72 -187h72l-54 -249h-221zM676 1389l45 210l103 226h127l-72 -187h72l-54 -249h-221z" />
<glyph unicode="&#x201d;" horiz-adv-x="690" d="M391 1243l72 187h-72l54 249h221l-45 -211l-103 -225h-127zM673 1243l72 187h-72l54 249h221l-45 -211l-103 -225h-127z" />
<glyph unicode="&#x201e;" horiz-adv-x="675" d="M119 -227l74 186h-72l53 250h221l-45 -211l-104 -225h-127zM406 -227l74 186h-72l53 250h221l-45 -211l-104 -225h-127z" />
<glyph unicode="&#x2022;" horiz-adv-x="976" d="M160 446l596 811l250 -811h-846z" />
<glyph unicode="&#x2026;" horiz-adv-x="1216" d="M84 -41l53 250h221l-53 -250h-221zM490 -41l53 250h221l-53 -250h-221zM895 -41l53 250h221l-53 -250h-221z" />
<glyph unicode="&#x202f;" horiz-adv-x="441" />
<glyph unicode="&#x2039;" horiz-adv-x="626" d="M195 481l34 168l521 367l-50 -232l-313 -219l219 -225l-49 -229z" />
<glyph unicode="&#x203a;" horiz-adv-x="626" d="M115 111l49 231l313 219l-217 225l47 230l365 -371l-35 -168z" />
<glyph unicode="&#x205f;" horiz-adv-x="551" />
<glyph unicode="&#x20ac;" horiz-adv-x="1087" d="M252 573l39 185h92l25 123h-92l40 184h93l55 266q74 348 387 348h498l-39 -184h-498q-147 0 -182 -164l-55 -266h368l-41 -184h-368l-25 -123h369l-39 -185h-369l-57 -266q-35 -164 112 -164h498l-39 -184h-498q-313 0 -239 348l57 266h-92z" />
<glyph unicode="&#x2122;" horiz-adv-x="1650" d="M412 1487l41 192h608l-41 -192h-213l-150 -709h-178l150 709h-217zM963 778l190 901h160l90 -569l328 569h163l-190 -901h-180l71 338l-196 -338h-135l-54 336l-71 -336h-176z" />
<glyph unicode="&#x25fc;" horiz-adv-x="1167" d="M0 0v1167h1167v-1167h-1167z" />
<glyph unicode="&#xfb01;" horiz-adv-x="755" d="M92 -41l291 1372q74 344 418 348h235l-39 -186h-235v2q-178 -2 -213 -164l-35 -164h387l-256 -1208h-166l217 1024h-221l-217 -1024h-166z" />
<glyph unicode="&#xfb02;" horiz-adv-x="718" d="M84 -41l291 1372q74 348 444 350l-2 -2h166l-365 -1720h-165l217 1024h-203l-217 -1024h-166zM506 1167h203l69 330q-203 -2 -237 -166z" />
</font>
</defs>
</svg>
